<?xml version="1.0" encoding="utf-8"?>
<svg viewBox="0 0 1500 1475" xmlns="http://www.w3.org/2000/svg">
  <g id="surface1">
    <path style=" stroke:none;fill-rule:nonzero;fill:rgb(0%,0%,0%);fill-opacity:1;" d="M 1281.859375 258.4375 C 1280.652344 256.875 1279.367188 255.351562 1277.9375 253.917969 C 1276.5 252.488281 1274.980469 251.203125 1273.425781 249.992188 C 1139.339844 118.003906 955.527344 36.417969 752.988281 36.402344 L 752.90625 36.394531 L 752.824219 36.402344 C 550.285156 36.417969 366.472656 118.003906 232.394531 249.992188 C 230.832031 251.203125 229.3125 252.480469 227.882812 253.917969 C 226.445312 255.351562 225.167969 256.875 223.957031 258.4375 C 91.972656 392.558594 10.40625 576.4375 10.40625 779.039062 C 10.40625 805.007812 31.449219 826.058594 57.417969 826.058594 L 1448.394531 826.058594 C 1474.363281 826.058594 1495.40625 805.007812 1495.40625 779.039062 C 1495.40625 576.4375 1413.839844 392.558594 1281.859375 258.4375 Z M 942.242188 732.019531 L 910.53125 732.019531 C 901.476562 701.605469 883.863281 674.898438 860.488281 654.648438 L 874.367188 626.5 C 907.417969 652.878906 931.738281 689.738281 942.242188 732.019531 Z M 774.699219 616.007812 C 767.566406 615.0625 760.304688 614.53125 752.90625 614.53125 C 678.410156 614.53125 615.511719 664.082031 595.28125 732.023438 L 563.574219 732.023438 C 584.675781 647.066406 661.539062 583.910156 752.914062 583.910156 C 765.199219 583.910156 777.207031 585.109375 788.875 587.289062 Z M 1006.3125 732.019531 C 993.949219 665.230469 955.789062 607.421875 902.566406 569.316406 L 1014.992188 341.34375 C 1026.476562 318.050781 1016.910156 289.859375 993.625 278.375 C 970.351562 266.882812 942.15625 276.449219 930.667969 299.746094 L 817.417969 529.390625 C 796.789062 524.058594 775.175781 521.21875 752.90625 521.21875 C 626.820312 521.21875 521.667969 612.242188 499.5 732.023438 L 106.117188 732.023438 C 116.4375 588.488281 173.707031 457.765625 262.558594 355.097656 L 294.632812 387.179688 C 303.816406 396.355469 315.847656 400.953125 327.878906 400.953125 C 339.90625 400.953125 351.941406 396.363281 361.125 387.179688 C 379.484375 368.816406 379.484375 339.042969 361.125 320.683594 L 329.042969 288.597656 C 431.6875 199.738281 562.390625 142.472656 705.902344 132.140625 L 705.902344 185.6875 C 705.902344 211.65625 726.945312 232.707031 752.914062 232.707031 C 778.882812 232.707031 799.925781 211.65625 799.925781 185.6875 L 799.925781 132.140625 C 943.433594 142.472656 1074.132812 199.738281 1176.78125 288.597656 L 1144.699219 320.683594 C 1126.339844 339.046875 1126.339844 368.820312 1144.699219 387.179688 C 1153.882812 396.355469 1165.917969 400.953125 1177.945312 400.953125 C 1189.976562 400.953125 1202.011719 396.363281 1211.195312 387.179688 L 1243.269531 355.097656 C 1332.121094 457.765625 1389.386719 588.488281 1399.710938 732.023438 L 1006.3125 732.023438 Z M 1006.3125 732.019531 "/>
    <path clip-rule="evenodd" d="M 753.729 1390.387 C 674.195 1390.387 611.23 1325.766 611.23 1247.89 C 611.23 1196.524 637.742 1151.786 677.508 1126.932 L 677.508 971.179 C 677.508 929.756 712.305 896.617 752.071 896.617 C 791.838 896.617 826.634 929.756 826.634 971.179 L 826.634 1123.618 C 868.057 1148.473 896.226 1194.868 896.226 1246.232 C 897.882 1325.766 833.261 1390.387 753.729 1390.387 Z M 798.466 1151.786 L 795.151 979.463 C 795.151 959.58 771.954 944.668 752.071 944.668 C 732.188 944.668 710.647 959.58 710.647 979.463 L 710.647 1153.444 C 675.852 1170.013 650.998 1206.466 650.998 1247.89 C 650.998 1305.882 697.391 1352.277 755.385 1352.277 C 813.378 1352.277 859.773 1305.882 859.773 1247.89 C 859.773 1204.808 834.919 1168.356 798.466 1151.786 Z M 753.729 1325.766 C 710.647 1325.766 675.852 1290.97 675.852 1247.89 C 675.852 1214.751 697.391 1186.583 727.217 1174.983 L 727.217 1029.172 L 776.926 1029.172 L 776.926 1174.983 C 808.407 1184.925 831.604 1213.093 831.604 1247.89 C 831.604 1290.97 796.809 1325.766 753.729 1325.766 Z" fill="#0D0D0D" fill-rule="evenodd" style=""/>
  </g>
</svg>