<?xml version="1.0" encoding="UTF-8"?>
<svg xmlns="http://www.w3.org/2000/svg" xmlns:xlink="http://www.w3.org/1999/xlink" width="1500pt" height="1475pt" viewBox="0 0 1500 1475" version="1.1">

 <g>
  <title>background</title>
  <rect fill="none" id="canvas_background" height="402" width="582" y="-1" x="-1"/>
 </g>
 <g>
  <title>Layer 1</title>
  <g id="svg_44">
   <g id="surface1">
    <path id="svg_1" fill-rule="nonzero" fill="rgb(0%,0%,0%)" d="m1282.85938,258.4375c-1.20704,-1.5625 -2.49219,-3.08594 -3.92188,-4.51953c-1.4375,-1.42969 -2.95703,-2.71484 -4.51172,-3.92578c-134.08594,-131.98828 -317.89844,-213.57422 -520.4375,-213.58985l-0.08203,-0.00781l-0.08203,0.00781c-202.53906,0.01563 -386.35156,81.60157 -520.42969,213.58985c-1.5625,1.21094 -3.08203,2.48828 -4.51172,3.92578c-1.4375,1.43359 -2.71484,2.95703 -3.92578,4.51953c-131.98437,134.12109 -213.55078,318 -213.55078,520.60156c0,25.96875 21.04297,47.01953 47.01172,47.01953l1390.97656,0c25.96875,0 47.01172,-21.05078 47.01172,-47.01953c0,-202.60156 -81.56641,-386.48047 -213.54687,-520.60156zm-339.61719,473.58203l-31.71094,0c-9.05469,-30.41406 -26.66797,-57.12109 -50.04297,-77.37109l13.87891,-28.14844c33.05078,26.37891 57.37109,63.23828 67.875,105.51953zm-167.54297,-116.01172c-7.13281,-0.94531 -14.39453,-1.47656 -21.79297,-1.47656c-74.49609,0 -137.39453,49.55078 -157.625,117.49219l-31.70703,0c21.10156,-84.95703 97.96484,-148.11328 189.33984,-148.11328c12.28516,0 24.29297,1.19922 35.96094,3.3789l-14.17578,28.71875zm231.61328,116.01172c-12.36328,-66.78906 -50.52344,-124.59765 -103.74609,-162.70312l112.42578,-227.97266c11.48437,-23.29297 1.91797,-51.48437 -21.36719,-62.96875c-23.27344,-11.49219 -51.46875,-1.92578 -62.95703,21.37109l-113.25,229.64454c-20.62891,-5.33204 -42.24219,-8.17188 -64.51172,-8.17188c-126.08594,0 -231.23828,91.02344 -253.40625,210.80469l-393.38281,0c10.32031,-143.53516 67.58984,-274.25781 156.4414,-376.92578l32.07422,32.08203c9.1836,9.17578 21.21485,13.77344 33.2461,13.77344c12.02734,0 24.0625,-4.58985 33.24609,-13.77344c18.35938,-18.36328 18.35938,-48.13672 0,-66.4961l-32.08203,-32.08593c102.64453,-88.85938 233.34766,-146.125 376.85937,-156.45703l0,53.54687c0,25.96875 21.04297,47.01953 47.01172,47.01953c25.96875,0 47.01172,-21.05078 47.01172,-47.01953l0,-53.54687c143.50781,10.33203 274.20703,67.59765 376.85547,156.45703l-32.08203,32.08593c-18.35938,18.36329 -18.35938,48.13672 0,66.4961c9.18359,9.17578 21.21875,13.77344 33.24609,13.77344c12.03125,0 24.06641,-4.58985 33.25,-13.77344l32.07422,-32.08203c88.85156,102.66797 146.11719,233.39062 156.44141,376.92578l-393.39844,0l0,-0.00391zm0,0"/>
    <g id="svg_35">
     <g transform="matrix(0.10743826856583727,0,0,0.10743826856583727,0,0) " id="svg_33">
      <title transform="translate(6233.5498046875,0) translate(0,6187.6064453125) ">background</title>
      <rect x="6232.549805" y="6186.606445" width="582" height="402" id="svg_31" fill="none"/>
     </g>
     <g transform="matrix(0.10743826856583727,0,0,0.10743826856583727,0,0) " id="svg_34">
      <title transform="translate(6233.5498046875,0) translate(0,6187.6064453125) ">Layer 1</title>
      <g id="svg_24">
       <g id="svg_25">
        <path d="m7515.409185,6446.043945c-1.20704,-1.5625 -2.49219,-3.08594 -3.92188,-4.51953c-1.4375,-1.42969 -2.95703,-2.71484 -4.51172,-3.92578c-134.08594,-131.98828 -317.89844,-213.57422 -520.4375,-213.58985l-0.08203,-0.00781l-0.08203,0.00781c-202.53906,0.01563 -386.35156,81.60157 -520.42969,213.58985c-1.5625,1.21094 -3.08203,2.48828 -4.51172,3.92578c-1.4375,1.43359 -2.71484,2.95703 -3.92578,4.51953c-131.98437,134.12109 -213.55078,318 -213.55078,520.60156c0,25.96875 21.04297,47.01953 47.01172,47.01953l1390.97656,0c25.96875,0 47.01172,-21.05078 47.01172,-47.01953c0,-202.60156 -81.56641,-386.48047 -213.54687,-520.60156zm-339.61719,473.58203l-31.71094,0c-9.05469,-30.41406 -26.66797,-57.12109 -50.04297,-77.37109l13.87891,-28.14844c33.05078,26.37891 57.37109,63.23828 67.875,105.51953zm-167.54297,-116.01172c-7.13281,-0.94531 -14.39453,-1.47656 -21.79297,-1.47656c-74.49609,0 -137.39453,49.55078 -157.625,117.49219l-31.70703,0c21.10156,-84.95703 97.96484,-148.11328 189.33984,-148.11328c12.28516,0 24.29297,1.19922 35.96094,3.3789l-14.17578,28.71875zm231.61328,116.01172c-12.36328,-66.78906 -50.52344,-124.59765 -103.74609,-162.70312l112.42578,-227.97266c11.48437,-23.29297 1.91797,-51.48437 -21.36719,-62.96875c-23.27344,-11.49219 -51.46875,-1.92578 -62.95703,21.37109l-113.25,229.64454c-20.62891,-5.33204 -42.24219,-8.17188 -64.51172,-8.17188c-126.08594,0 -231.23828,91.02344 -253.40625,210.80469l-393.38281,0c10.32031,-143.53516 67.58984,-274.25781 156.4414,-376.92578l32.07422,32.08203c9.1836,9.17578 21.21485,13.77344 33.2461,13.77344c12.02734,0 24.0625,-4.58985 33.24609,-13.77344c18.35938,-18.36328 18.35938,-48.13672 0,-66.4961l-32.08203,-32.08593c102.64453,-88.85938 233.34766,-146.125 376.85937,-156.45703l0,53.54687c0,25.96875 21.04297,47.01953 47.01172,47.01953c25.96875,0 47.01172,-21.05078 47.01172,-47.01953l0,-53.54687c143.50781,10.33203 274.20703,67.59765 376.85547,156.45703l-32.08203,32.08593c-18.35938,18.36329 -18.35938,48.13672 0,66.4961c9.18359,9.17578 21.21875,13.77344 33.24609,13.77344c12.03125,0 24.06641,-4.58985 33.25,-13.77344l32.07422,-32.08203c88.85156,102.66797 146.11719,233.39062 156.44141,376.92578l-393.39844,0l0,-0.00391zm0,0" fill="rgb(0%,0%,0%)" fill-rule="nonzero" id="svg_30"/>
        <g id="svg_26" stroke="null">
         <g id="svg_27" transform="matrix(16.195249115293514,0,0,16.195249115293514,811.3894853182258,1061.3141907951178) " stroke="null">
          <path d="m389.521942,391.683529c0,4.688 -3.8,8.489 -8.489,8.489s-8.489,-3.8 -8.489,-8.489" fill="none" stroke-linecap="round" stroke-miterlimit="10" stroke-width="2" id="svg_29" stroke="#000000"/>
          <path d="m372.769942,387.366529c1.345,-5.307 8.263,-14.861 8.263,-14.861s6.831,9.433 8.237,14.76" fill="none" stroke-linecap="round" stroke-miterlimit="10" stroke-width="2" id="svg_28" stroke="#000000"/>
         </g>
        </g>
       </g>
      </g>
     </g>
    </g>
   </g>
   <g stroke="null" id="svg_43">
    <g stroke="null" transform="matrix(18.341630669206907,0,0,18.341630669206907,258.9617792993424,405.6496362740089) " id="svg_40">
     <path stroke="#000000" id="svg_41" stroke-width="2" stroke-miterlimit="10" stroke-linecap="round" fill="none" d="m35.260785,45.25809c0,4.688 -3.8,8.489 -8.489,8.489s-8.489,-3.8 -8.489,-8.489"/>
     <path stroke="#000000" id="svg_42" stroke-width="2" stroke-miterlimit="10" stroke-linecap="round" fill="none" d="m18.508785,40.94109c1.345,-5.307 8.263,-14.861 8.263,-14.861s6.831,9.433 8.237,14.76"/>
    </g>
   </g>
  </g>
 </g>
</svg>