<svg width="1250" height="1250" xmlns="http://www.w3.org/2000/svg" role="img" data-icon="circle" data-prefix="far" focusable="false" aria-hidden="true" data-fa-transform="grow-18" class="svg-inline--fa fa-circle">

 <g>
  <title>Layer 1</title>
  <g id="svg_1">
   <g id="svg_2" transform="translate(0 0) scale(2.125 2.125)">
    <path id="svg_3" d="m550.11765,294.11765c0,141.4 -114.6,256 -256,256c-141.4,0 -256,-114.6 -256,-256c0,-141.4 114.6,-256 256,-256c141.4,0 256,114.6 256,256zm-256,-208c-114.9,0 -208,93.1 -208,208c0,114.9 93.1,208 208,208c114.9,0 208,-93.1 208,-208c0,-114.9 -93.1,-208 -208,-208z" fill="currentColor"/>
   </g>
  </g>
  <g id="svg_13">
   <g id="svg_4">
    <g id="svg_5" transform="translate(0 -160) scale(0.625 0.625)">
     <path id="svg_6" d="m1012.50372,979.20002l111.5,0c13.3,0 25.3,8.3 29.1,20.7c5.5,12.5 2,26.6 -8,35.4l-256,224c-11.3,9.8 -27.83,10.6 -39.91,1.8c-12.09,-8.8 -16.49,-24.8 -10.6,-38.5l76.91,-179.4l-112.4,0c-12.43,0 -24.367,-8.3 -29.056,-20.7c-4.689,-12.5 -1.1496,-26.6 8.886,-35.4l255.97,-223.982c11.3,-9.838 27.8,-10.587 39.9,-1.804c12.1,8.786 16.5,24.756 10.6,38.496l-76.9,179.39z" fill="currentColor"/>
    </g>
   </g>
   <g id="svg_7">
    <g id="svg_8" transform="rotate(220 108.421 641.851) translate(-160 128) scale(0.625 0.625)">
     <path id="svg_9" d="m-105.89629,987.20002l111.5,0c13.3,0 25.3,8.3 29.1,20.7c5.5,12.5 2,26.6 -8,35.4l-256,224c-11.3,9.8 -27.83,10.6 -39.91,1.8c-12.09,-8.8 -16.49,-24.8 -10.6,-38.5l76.91,-179.4l-112.4,0c-12.43,0 -24.367,-8.3 -29.056,-20.7c-4.689,-12.5 -1.1496,-26.6 8.886,-35.4l255.97,-223.982c11.3,-9.838 27.8,-10.587 39.9,-1.804c12.1,8.786 16.5,24.756 10.6,38.496l-76.9,179.39z" fill="currentColor"/>
    </g>
   </g>
   <g id="svg_10">
    <g id="svg_11" transform="rotate(120 1000.69 522.767) translate(128 128) scale(0.625 0.625)">
     <path id="svg_12" d="m1929.30372,729.60002l111.5,0c13.3,0 25.3,8.3 29.1,20.7c5.5,12.5 2,26.6 -8,35.4l-256,224c-11.3,9.8 -27.83,10.6 -39.91,1.8c-12.09,-8.8 -16.49,-24.8 -10.6,-38.5l76.91,-179.4l-112.4,0c-12.43,0 -24.367,-8.3 -29.056,-20.7c-4.689,-12.5 -1.1496,-26.6 8.886,-35.4l255.97,-223.982c11.3,-9.838 27.8,-10.587 39.9,-1.804c12.1,8.786 16.5,24.756 10.6,38.496l-76.9,179.39z" fill="currentColor"/>
    </g>
   </g>
  </g>
 </g>
</svg>