<?xml version="1.0" encoding="UTF-8"?>
<svg xmlns="http://www.w3.org/2000/svg" xmlns:xlink="http://www.w3.org/1999/xlink" width="1500pt" height="1475pt" viewBox="0 0 1500 1475" version="1.1">
<g id="surface1">
<path style=" stroke:none;fill-rule:nonzero;fill:rgb(0%,0%,0%);fill-opacity:1;" d="M 1281.859375 258.4375 C 1280.652344 256.875 1279.367188 255.351562 1277.9375 253.917969 C 1276.5 252.488281 1274.980469 251.203125 1273.425781 249.992188 C 1139.339844 118.003906 955.527344 36.417969 752.988281 36.402344 L 752.90625 36.394531 L 752.824219 36.402344 C 550.285156 36.417969 366.472656 118.003906 232.394531 249.992188 C 230.832031 251.203125 229.3125 252.480469 227.882812 253.917969 C 226.445312 255.351562 225.167969 256.875 223.957031 258.4375 C 91.972656 392.558594 10.40625 576.4375 10.40625 779.039062 C 10.40625 805.007812 31.449219 826.058594 57.417969 826.058594 L 1448.394531 826.058594 C 1474.363281 826.058594 1495.40625 805.007812 1495.40625 779.039062 C 1495.40625 576.4375 1413.839844 392.558594 1281.859375 258.4375 Z M 942.242188 732.019531 L 910.53125 732.019531 C 901.476562 701.605469 883.863281 674.898438 860.488281 654.648438 L 874.367188 626.5 C 907.417969 652.878906 931.738281 689.738281 942.242188 732.019531 Z M 774.699219 616.007812 C 767.566406 615.0625 760.304688 614.53125 752.90625 614.53125 C 678.410156 614.53125 615.511719 664.082031 595.28125 732.023438 L 563.574219 732.023438 C 584.675781 647.066406 661.539062 583.910156 752.914062 583.910156 C 765.199219 583.910156 777.207031 585.109375 788.875 587.289062 Z M 1006.3125 732.019531 C 993.949219 665.230469 955.789062 607.421875 902.566406 569.316406 L 1014.992188 341.34375 C 1026.476562 318.050781 1016.910156 289.859375 993.625 278.375 C 970.351562 266.882812 942.15625 276.449219 930.667969 299.746094 L 817.417969 529.390625 C 796.789062 524.058594 775.175781 521.21875 752.90625 521.21875 C 626.820312 521.21875 521.667969 612.242188 499.5 732.023438 L 106.117188 732.023438 C 116.4375 588.488281 173.707031 457.765625 262.558594 355.097656 L 294.632812 387.179688 C 303.816406 396.355469 315.847656 400.953125 327.878906 400.953125 C 339.90625 400.953125 351.941406 396.363281 361.125 387.179688 C 379.484375 368.816406 379.484375 339.042969 361.125 320.683594 L 329.042969 288.597656 C 431.6875 199.738281 562.390625 142.472656 705.902344 132.140625 L 705.902344 185.6875 C 705.902344 211.65625 726.945312 232.707031 752.914062 232.707031 C 778.882812 232.707031 799.925781 211.65625 799.925781 185.6875 L 799.925781 132.140625 C 943.433594 142.472656 1074.132812 199.738281 1176.78125 288.597656 L 1144.699219 320.683594 C 1126.339844 339.046875 1126.339844 368.820312 1144.699219 387.179688 C 1153.882812 396.355469 1165.917969 400.953125 1177.945312 400.953125 C 1189.976562 400.953125 1202.011719 396.363281 1211.195312 387.179688 L 1243.269531 355.097656 C 1332.121094 457.765625 1389.386719 588.488281 1399.710938 732.023438 L 1006.3125 732.023438 Z M 1006.3125 732.019531 "/>
<path style=" stroke:none;fill-rule:nonzero;fill:rgb(0%,0%,0%);fill-opacity:1;" d="M 434.253906 1148.242188 C 453.5 1128.992188 453.5 1097.738281 434.253906 1078.574219 C 415.011719 1059.328125 383.757812 1059.328125 364.601562 1078.574219 L 338.457031 1104.71875 C 331.21875 1111.960938 319.382812 1111.960938 312.144531 1104.71875 L 265.484375 1057.964844 C 262.585938 1055.066406 258.671875 1053.449219 254.667969 1053.449219 C 250.582031 1053.449219 246.664062 1055.066406 243.855469 1057.964844 C 231.082031 1070.738281 214.136719 1077.808594 196 1077.808594 C 177.859375 1077.808594 160.914062 1070.738281 148.144531 1057.964844 L 105.90625 1015.71875 L 201.535156 920.078125 L 243.769531 962.320312 C 255.519531 974.074219 262.503906 989.660156 263.4375 1006.179688 C 263.949219 1014.359375 270.675781 1020.660156 278.765625 1020.660156 C 279.023438 1020.660156 279.363281 1020.660156 279.703125 1020.660156 C 288.132812 1020.148438 294.605469 1012.910156 294.09375 1004.476562 C 292.730469 980.375 282.511719 957.722656 265.484375 940.6875 L 223.246094 898.445312 L 227.929688 893.761719 C 233.890625 887.796875 233.890625 878.089844 227.929688 872.042969 C 221.96875 866.082031 212.261719 866.082031 206.21875 872.042969 L 176.15625 902.105469 L 124.046875 849.984375 C 118.085938 844.023438 108.378906 844.023438 102.332031 849.984375 C 96.371094 855.945312 96.371094 865.65625 102.332031 871.703125 L 154.445312 923.824219 L 109.65625 968.621094 L 57.542969 916.5 C 51.582031 910.539062 41.875 910.539062 35.828125 916.5 C 29.867188 922.460938 29.867188 932.171875 35.828125 938.21875 L 88.027344 990.339844 L 57.96875 1020.40625 C 52.007812 1026.367188 52.007812 1036.074219 57.96875 1042.121094 C 60.949219 1045.101562 64.863281 1046.636719 68.78125 1046.636719 C 72.699219 1046.636719 76.617188 1045.101562 79.597656 1042.121094 L 84.277344 1037.4375 L 126.515625 1079.679688 C 145.078125 1098.246094 169.773438 1108.46875 196 1108.46875 C 217.03125 1108.46875 237.128906 1101.910156 253.816406 1089.644531 L 290.515625 1126.351562 C 300.140625 1135.976562 312.742188 1140.746094 325.34375 1140.746094 C 337.945312 1140.746094 350.550781 1135.976562 360.171875 1126.351562 L 386.3125 1100.207031 C 393.550781 1092.96875 405.386719 1092.96875 412.625 1100.207031 C 419.863281 1107.445312 419.863281 1119.285156 412.625 1126.523438 L 386.484375 1152.671875 C 377.203125 1161.953125 372.09375 1174.304688 372.09375 1187.503906 C 372.09375 1200.703125 377.203125 1213.054688 386.484375 1222.335938 C 389.464844 1225.316406 393.382812 1226.851562 397.296875 1226.851562 C 401.214844 1226.851562 405.132812 1225.316406 408.113281 1222.335938 C 414.074219 1216.375 414.074219 1206.667969 408.113281 1200.621094 C 404.621094 1197.128906 402.664062 1192.445312 402.664062 1187.503906 C 402.664062 1182.5625 404.621094 1177.878906 408.113281 1174.386719 Z M 434.253906 1148.242188 "/>
<path style=" stroke:none;fill-rule:nonzero;fill:rgb(0%,0%,0%);fill-opacity:1;" d="M 1280.066406 1232.300781 C 1283.90625 1234.34375 1287.960938 1229.921875 1285.605469 1226.261719 C 1272.839844 1206.386719 1260.75 1172.945312 1280.011719 1129.875 C 1312.132812 1058.050781 1331.679688 1020.855469 1331.679688 1020.855469 C 1331.679688 1020.855469 1342.074219 1064.265625 1370.257812 1102.863281 C 1397.378906 1140.011719 1412.226562 1186.730469 1388.292969 1225.652344 C 1386.046875 1229.304688 1390.007812 1233.613281 1393.824219 1231.660156 C 1423.449219 1216.503906 1456.679688 1186.097656 1460.429688 1125.589844 C 1461.8125 1107.101562 1459.738281 1081.21875 1449.371094 1048.554688 C 1436.042969 1007.15625 1419.65625 987.839844 1410.175781 979.542969 C 1407.339844 977.0625 1402.929688 979.261719 1403.160156 983.023438 C 1405.921875 1027.691406 1389.121094 1039.027344 1379.558594 1013.480469 C 1375.738281 1003.277344 1373.511719 985.628906 1373.511719 964.136719 C 1373.511719 928.355469 1363.132812 891.523438 1340.25 861.59375 C 1334.300781 853.8125 1327.339844 846.539062 1319.351562 840.335938 C 1316.457031 838.089844 1312.265625 840.347656 1312.53125 844 C 1314.289062 868.253906 1312.695312 937.769531 1251.71875 1020.820312 C 1196.433594 1097.859375 1217.855469 1157.023438 1225.457031 1173.046875 C 1239.992188 1203.746094 1260.265625 1221.773438 1280.066406 1232.300781 Z M 1280.066406 1232.300781 "/>
<path style=" stroke:none;fill-rule:nonzero;fill:rgb(0%,0%,0%);fill-opacity:1;" d="M 771.492188 881.980469 C 777.835938 881.980469 782.980469 876.832031 782.980469 870.488281 L 782.980469 853.621094 C 782.980469 847.269531 777.835938 842.125 771.492188 842.125 C 765.140625 842.125 759.996094 847.269531 759.996094 853.621094 L 759.996094 870.488281 C 759.996094 876.832031 765.140625 881.980469 771.492188 881.980469 Z M 771.492188 881.980469 "/>
<path style=" stroke:none;fill-rule:nonzero;fill:rgb(0%,0%,0%);fill-opacity:1;" d="M 842.90625 904.835938 L 845.261719 902.480469 C 849.75 897.988281 849.75 890.714844 845.261719 886.222656 C 840.777344 881.734375 833.5 881.734375 829.007812 886.222656 L 826.65625 888.582031 C 822.167969 893.070312 822.167969 900.347656 826.65625 904.835938 C 831.140625 909.324219 838.417969 909.324219 842.90625 904.835938 Z M 842.90625 904.835938 "/>
<path style=" stroke:none;fill-rule:nonzero;fill:rgb(0%,0%,0%);fill-opacity:1;" d="M 665.660156 971.503906 L 681.984375 971.503906 C 688.328125 971.503906 693.472656 966.355469 693.472656 960.011719 C 693.472656 953.664062 688.328125 948.519531 681.984375 948.519531 L 665.660156 948.519531 C 659.3125 948.519531 654.167969 953.664062 654.167969 960.011719 C 654.167969 966.355469 659.3125 971.503906 665.660156 971.503906 Z M 665.660156 971.503906 "/>
<path style=" stroke:none;fill-rule:nonzero;fill:rgb(0%,0%,0%);fill-opacity:1;" d="M 860.996094 971.503906 L 877.320312 971.503906 C 883.664062 971.503906 888.808594 966.355469 888.808594 960.011719 C 888.808594 953.664062 883.664062 948.519531 877.320312 948.519531 L 860.996094 948.519531 C 854.652344 948.519531 849.503906 953.664062 849.503906 960.011719 C 849.503906 966.355469 854.652344 971.503906 860.996094 971.503906 Z M 860.996094 971.503906 "/>
<path style=" stroke:none;fill-rule:nonzero;fill:rgb(0%,0%,0%);fill-opacity:1;" d="M 700.074219 904.835938 C 704.558594 909.324219 711.832031 909.324219 716.324219 904.835938 C 720.8125 900.347656 720.8125 893.070312 716.324219 888.582031 L 713.96875 886.222656 C 709.480469 881.734375 702.203125 881.734375 697.71875 886.222656 C 693.226562 890.710938 693.226562 897.988281 697.714844 902.476562 Z M 700.074219 904.835938 "/>
<path style=" stroke:none;fill-rule:nonzero;fill:rgb(0%,0%,0%);fill-opacity:1;" d="M 804.5625 987.5 C 810.464844 980.195312 813.992188 970.917969 813.992188 960.824219 C 813.992188 937.386719 794.925781 918.316406 771.492188 918.316406 C 748.054688 918.316406 728.984375 937.386719 728.984375 960.824219 C 728.984375 970.917969 732.519531 980.195312 738.414062 987.5 Z M 804.5625 987.5 "/>
<path style=" stroke:none;fill-rule:nonzero;fill:rgb(0%,0%,0%);fill-opacity:1;" d="M 658.824219 1045.734375 L 759.996094 1045.734375 L 759.996094 1010.488281 L 677.351562 1010.488281 C 672.1875 1010.488281 667.660156 1013.929688 666.277344 1018.90625 Z M 658.824219 1045.734375 "/>
<path style=" stroke:none;fill-rule:nonzero;fill:rgb(0%,0%,0%);fill-opacity:1;" d="M 782.980469 1010.488281 L 782.980469 1045.734375 L 884.152344 1045.734375 L 876.699219 1018.90625 C 875.316406 1013.929688 870.792969 1010.488281 865.628906 1010.488281 Z M 782.980469 1010.488281 "/>
<path style=" stroke:none;fill-rule:nonzero;fill:rgb(0%,0%,0%);fill-opacity:1;" d="M 751.816406 1176.933594 L 791.164062 1176.933594 L 788.160156 1133.578125 L 754.816406 1133.578125 Z M 751.816406 1176.933594 "/>
<path style=" stroke:none;fill-rule:nonzero;fill:rgb(0%,0%,0%);fill-opacity:1;" d="M 759.996094 1068.722656 L 652.433594 1068.722656 L 644.851562 1096.019531 C 642.816406 1103.34375 648.324219 1110.589844 655.925781 1110.589844 L 759.996094 1110.589844 Z M 759.996094 1068.722656 "/>
<path style=" stroke:none;fill-rule:nonzero;fill:rgb(0%,0%,0%);fill-opacity:1;" d="M 782.980469 1110.589844 L 887.054688 1110.589844 C 894.652344 1110.589844 900.160156 1103.34375 898.125 1096.019531 L 890.542969 1068.722656 L 782.980469 1068.722656 Z M 782.980469 1110.589844 "/>
<path style=" stroke:none;fill-rule:nonzero;fill:rgb(0%,0%,0%);fill-opacity:1;" d="M 830.152344 1199.917969 L 712.828125 1199.917969 C 698.421875 1199.917969 686.742188 1211.601562 686.742188 1226.011719 C 686.742188 1229.296875 689.402344 1231.957031 692.6875 1231.957031 L 850.292969 1231.957031 C 853.574219 1231.957031 856.234375 1229.296875 856.234375 1226.011719 C 856.234375 1211.601562 844.558594 1199.917969 830.152344 1199.917969 Z M 830.152344 1199.917969 "/>
</g>
</svg>
