<?xml version="1.0" encoding="UTF-8"?>
<svg xmlns="http://www.w3.org/2000/svg" xmlns:xlink="http://www.w3.org/1999/xlink" width="1500pt" height="1475pt" viewBox="0 0 1500 1475" version="1.1">
<g id="surface1">
<path style=" stroke:none;fill-rule:nonzero;fill:rgb(0%,0%,0%);fill-opacity:1;" d="M 1281.859375 258.4375 C 1280.652344 256.875 1279.367188 255.351562 1277.9375 253.917969 C 1276.5 252.488281 1274.980469 251.203125 1273.425781 249.992188 C 1139.339844 118.003906 955.527344 36.417969 752.988281 36.402344 L 752.90625 36.394531 L 752.824219 36.402344 C 550.285156 36.417969 366.472656 118.003906 232.394531 249.992188 C 230.832031 251.203125 229.3125 252.480469 227.882812 253.917969 C 226.445312 255.351562 225.167969 256.875 223.957031 258.4375 C 91.972656 392.558594 10.40625 576.4375 10.40625 779.039062 C 10.40625 805.007812 31.449219 826.058594 57.417969 826.058594 L 1448.394531 826.058594 C 1474.363281 826.058594 1495.40625 805.007812 1495.40625 779.039062 C 1495.40625 576.4375 1413.839844 392.558594 1281.859375 258.4375 Z M 942.242188 732.019531 L 910.53125 732.019531 C 901.476562 701.605469 883.863281 674.898438 860.488281 654.648438 L 874.367188 626.5 C 907.417969 652.878906 931.738281 689.738281 942.242188 732.019531 Z M 774.699219 616.007812 C 767.566406 615.0625 760.304688 614.53125 752.90625 614.53125 C 678.410156 614.53125 615.511719 664.082031 595.28125 732.023438 L 563.574219 732.023438 C 584.675781 647.066406 661.539062 583.910156 752.914062 583.910156 C 765.199219 583.910156 777.207031 585.109375 788.875 587.289062 Z M 1006.3125 732.019531 C 993.949219 665.230469 955.789062 607.421875 902.566406 569.316406 L 1014.992188 341.34375 C 1026.476562 318.050781 1016.910156 289.859375 993.625 278.375 C 970.351562 266.882812 942.15625 276.449219 930.667969 299.746094 L 817.417969 529.390625 C 796.789062 524.058594 775.175781 521.21875 752.90625 521.21875 C 626.820312 521.21875 521.667969 612.242188 499.5 732.023438 L 106.117188 732.023438 C 116.4375 588.488281 173.707031 457.765625 262.558594 355.097656 L 294.632812 387.179688 C 303.816406 396.355469 315.847656 400.953125 327.878906 400.953125 C 339.90625 400.953125 351.941406 396.363281 361.125 387.179688 C 379.484375 368.816406 379.484375 339.042969 361.125 320.683594 L 329.042969 288.597656 C 431.6875 199.738281 562.390625 142.472656 705.902344 132.140625 L 705.902344 185.6875 C 705.902344 211.65625 726.945312 232.707031 752.914062 232.707031 C 778.882812 232.707031 799.925781 211.65625 799.925781 185.6875 L 799.925781 132.140625 C 943.433594 142.472656 1074.132812 199.738281 1176.78125 288.597656 L 1144.699219 320.683594 C 1126.339844 339.046875 1126.339844 368.820312 1144.699219 387.179688 C 1153.882812 396.355469 1165.917969 400.953125 1177.945312 400.953125 C 1189.976562 400.953125 1202.011719 396.363281 1211.195312 387.179688 L 1243.269531 355.097656 C 1332.121094 457.765625 1389.386719 588.488281 1399.710938 732.023438 L 1006.3125 732.023438 Z M 1006.3125 732.019531 "/>
<path style=" stroke:none;fill-rule:nonzero;fill:rgb(0%,0%,0%);fill-opacity:1;" d="M 617.109375 1149.726562 C 636.351562 1130.480469 636.351562 1099.222656 617.109375 1080.0625 C 597.863281 1060.8125 566.613281 1060.8125 547.453125 1080.0625 L 521.3125 1106.207031 C 514.074219 1113.445312 502.238281 1113.445312 495 1106.207031 L 448.335938 1059.449219 C 445.441406 1056.554688 441.523438 1054.9375 437.523438 1054.9375 C 433.433594 1054.9375 429.519531 1056.554688 426.707031 1059.449219 C 413.9375 1072.226562 396.992188 1079.292969 378.851562 1079.292969 C 360.714844 1079.292969 343.769531 1072.226562 330.996094 1059.449219 L 288.761719 1017.207031 L 384.386719 921.5625 L 426.625 963.808594 C 438.375 975.558594 445.355469 991.144531 446.292969 1007.667969 C 446.804688 1015.84375 453.53125 1022.148438 461.621094 1022.148438 C 461.875 1022.148438 462.21875 1022.148438 462.558594 1022.148438 C 470.988281 1021.636719 477.460938 1014.398438 476.949219 1005.964844 C 475.585938 981.863281 465.367188 959.207031 448.335938 942.175781 L 406.101562 899.929688 L 410.785156 895.246094 C 416.746094 889.285156 416.746094 879.574219 410.785156 873.527344 C 404.824219 867.566406 395.117188 867.566406 389.070312 873.527344 L 359.011719 903.59375 L 306.898438 851.46875 C 300.9375 845.507812 291.230469 845.507812 285.1875 851.46875 C 279.226562 857.433594 279.226562 867.140625 285.1875 873.1875 L 337.296875 925.3125 L 292.507812 970.109375 L 240.394531 917.988281 C 234.433594 912.023438 224.726562 912.023438 218.683594 917.988281 C 212.722656 923.949219 212.722656 933.65625 218.683594 939.703125 L 270.878906 991.828125 L 240.820312 1021.890625 C 234.859375 1027.851562 234.859375 1037.5625 240.820312 1043.609375 C 243.800781 1046.589844 247.71875 1048.125 251.636719 1048.125 C 255.550781 1048.125 259.46875 1046.589844 262.449219 1043.609375 L 267.132812 1038.925781 L 309.367188 1081.167969 C 327.933594 1099.734375 352.625 1109.953125 378.851562 1109.953125 C 399.886719 1109.953125 419.980469 1103.398438 436.671875 1091.132812 L 473.371094 1127.839844 C 482.992188 1137.464844 495.597656 1142.234375 508.199219 1142.234375 C 520.800781 1142.234375 533.402344 1137.464844 543.027344 1127.839844 L 569.167969 1101.695312 C 576.40625 1094.453125 588.242188 1094.453125 595.480469 1101.695312 C 602.71875 1108.933594 602.71875 1120.769531 595.480469 1128.011719 L 569.339844 1154.15625 C 560.054688 1163.441406 554.949219 1175.789062 554.949219 1188.992188 C 554.949219 1202.191406 560.054688 1214.542969 569.339844 1223.824219 C 572.320312 1226.804688 576.234375 1228.339844 580.152344 1228.339844 C 584.070312 1228.339844 587.988281 1226.804688 590.96875 1223.824219 C 596.925781 1217.863281 596.925781 1208.152344 590.96875 1202.105469 C 587.476562 1198.613281 585.515625 1193.929688 585.515625 1188.992188 C 585.515625 1184.050781 587.476562 1179.367188 590.96875 1175.875 Z M 617.109375 1149.726562 "/>
<path style=" stroke:none;fill-rule:nonzero;fill:rgb(0%,0%,0%);fill-opacity:1;" d="M 1009.5 1232.300781 C 1013.34375 1234.34375 1017.394531 1229.921875 1015.042969 1226.261719 C 1002.273438 1206.386719 990.1875 1172.945312 1009.449219 1129.875 C 1041.570312 1058.050781 1061.113281 1020.855469 1061.113281 1020.855469 C 1061.113281 1020.855469 1071.511719 1064.265625 1099.691406 1102.863281 C 1126.816406 1140.011719 1141.660156 1186.730469 1117.726562 1225.652344 C 1115.480469 1229.304688 1119.441406 1233.613281 1123.257812 1231.660156 C 1152.886719 1216.503906 1186.113281 1186.097656 1189.863281 1125.589844 C 1191.246094 1107.101562 1189.171875 1081.21875 1178.808594 1048.554688 C 1165.476562 1007.15625 1149.089844 987.839844 1139.609375 979.542969 C 1136.773438 977.0625 1132.363281 979.261719 1132.597656 983.023438 C 1135.359375 1027.691406 1118.558594 1039.027344 1108.992188 1013.480469 C 1105.175781 1003.277344 1102.945312 985.628906 1102.945312 964.136719 C 1102.945312 928.355469 1092.566406 891.523438 1069.6875 861.59375 C 1063.734375 853.8125 1056.773438 846.539062 1048.785156 840.335938 C 1045.894531 838.089844 1041.699219 840.347656 1041.964844 844 C 1043.722656 868.253906 1042.132812 937.769531 981.15625 1020.820312 C 925.867188 1097.859375 947.292969 1157.023438 954.894531 1173.046875 C 969.429688 1203.746094 989.699219 1221.773438 1009.5 1232.300781 Z M 1009.5 1232.300781 "/>
</g>
</svg>
