<?xml version="1.0" encoding="UTF-8"?>
<svg xmlns="http://www.w3.org/2000/svg" xmlns:xlink="http://www.w3.org/1999/xlink" width="1500pt" height="1475pt" viewBox="0 0 1500 1475" version="1.1">
  <g id="surface1">
   <path transform="translate(-35,-63) " id="svg_1" fill-rule="nonzero" fill="rgb(0%,0%,0%)" d="m1312.85938,309.4375c-1.20704,-1.5625 -2.49219,-3.08594 -3.92188,-4.51953c-1.4375,-1.42969 -2.95703,-2.71484 -4.51172,-3.92578c-134.08594,-131.98828 -317.89844,-213.57422 -520.4375,-213.58985l-0.08203,-0.00781l-0.08203,0.00781c-202.53906,0.01563 -386.35156,81.60157 -520.42969,213.58985c-1.5625,1.21094 -3.08203,2.48828 -4.51172,3.92578c-1.4375,1.43359 -2.71484,2.95703 -3.92578,4.51953c-131.98437,134.12109 -213.55078,318 -213.55078,520.60156c0,25.96875 21.04297,47.01953 47.01172,47.01953l1390.97656,0c25.96875,0 47.01172,-21.05078 47.01172,-47.01953c0,-202.60156 -81.56641,-386.48047 -213.54687,-520.60156zm-339.61719,473.58203l-31.71094,0c-9.05469,-30.41406 -26.66797,-57.12109 -50.04297,-77.37109l13.87891,-28.14844c33.05078,26.37891 57.37109,63.23828 67.875,105.51953zm-167.54297,-116.01172c-7.13281,-0.94531 -14.39453,-1.47656 -21.79297,-1.47656c-74.49609,0 -137.39453,49.55078 -157.625,117.49219l-31.70703,0c21.10156,-84.95703 97.96484,-148.11328 189.33984,-148.11328c12.28516,0 24.29297,1.19922 35.96094,3.3789l-14.17578,28.71875zm231.61328,116.01172c-12.36328,-66.78906 -50.52344,-124.59765 -103.74609,-162.70312l112.42578,-227.97266c11.48437,-23.29297 1.91797,-51.48437 -21.36719,-62.96875c-23.27344,-11.49219 -51.46875,-1.92578 -62.95703,21.37109l-113.25,229.64454c-20.62891,-5.33204 -42.24219,-8.17188 -64.51172,-8.17188c-126.08594,0 -231.23828,91.02344 -253.40625,210.80469l-393.38281,0c10.32031,-143.53516 67.58984,-274.25781 156.4414,-376.92578l32.07422,32.08203c9.1836,9.17578 21.21485,13.77344 33.2461,13.77344c12.02734,0 24.0625,-4.58985 33.24609,-13.77344c18.35938,-18.36328 18.35938,-48.13672 0,-66.4961l-32.08203,-32.08593c102.64453,-88.85938 233.34766,-146.125 376.85937,-156.45703l0,53.54687c0,25.96875 21.04297,47.01953 47.01172,47.01953c25.96875,0 47.01172,-21.05078 47.01172,-47.01953l0,-53.54687c143.50781,10.33203 274.20703,67.59765 376.85547,156.45703l-32.08203,32.08593c-18.35938,18.36329 -18.35938,48.13672 0,66.4961c9.18359,9.17578 21.21875,13.77344 33.24609,13.77344c12.03125,0 24.06641,-4.58985 33.25,-13.77344l32.07422,-32.08203c88.85156,102.66797 146.11719,233.39062 156.44141,376.92578l-393.39844,0l0,-0.00391zm0,0"/>
   <path id="svg_2" fill-rule="nonzero" fill="rgb(0%,0%,0%)" d="m514.10938,1149.72656c19.24218,-19.24609 19.24218,-50.5039 0,-69.66406c-19.2461,-19.25 -50.4961,-19.25 -69.65625,0l-26.14063,26.14453c-7.23828,7.23828 -19.07422,7.23828 -26.3125,0l-46.66406,-46.75781c-2.89453,-2.89453 -6.8125,-4.51172 -10.8125,-4.51172c-4.08985,0 -8.00391,1.61719 -10.81641,4.51172c-12.76953,12.77734 -29.71484,19.84375 -47.85547,19.84375c-18.13672,0 -35.08203,-7.06641 -47.85547,-19.84375l-42.23437,-42.24219l95.625,-95.64453l42.23828,42.24609c11.75,11.75 18.73047,27.33594 19.66797,43.85938c0.51172,8.17578 7.23828,14.48047 15.32812,14.48047c0.25391,0 0.59766,0 0.9375,0c8.42969,-0.51172 14.90235,-7.75 14.39063,-16.1836c-1.36328,-24.10156 -11.58203,-46.75781 -28.61328,-63.78906l-42.23438,-42.24609l4.6836,-4.6836c5.96093,-5.96093 5.96093,-15.67187 0,-21.71875c-5.96094,-5.96093 -15.66797,-5.96093 -21.71485,0l-30.05859,30.06641l-52.11328,-52.125c-5.96094,-5.96094 -15.66797,-5.96094 -21.71094,0c-5.96094,5.96484 -5.96094,15.67188 0,21.71875l52.10938,52.125l-44.78907,44.79688l-52.11328,-52.1211c-5.96094,-5.96484 -15.66797,-5.96484 -21.71094,0c-5.96093,5.96094 -5.96093,15.66797 0,21.71485l52.19532,52.125l-30.0586,30.0625c-5.96093,5.96093 -5.96093,15.67187 0,21.71875c2.98047,2.98046 6.89844,4.51562 10.81641,4.51562c3.91406,0 7.83203,-1.53516 10.8125,-4.51562l4.68359,-4.6836l42.23438,42.24219c18.5664,18.56641 43.25781,28.78516 69.48437,28.78516c21.03516,0 41.12891,-6.55469 57.82032,-18.82032l36.69921,36.70703c9.6211,9.625 22.22657,14.39454 34.82813,14.39454c12.60156,0 25.20312,-4.76954 34.82812,-14.39454l26.14063,-26.14453c7.23828,-7.24218 19.07422,-7.24218 26.3125,0c7.23828,7.23828 7.23828,19.07422 0,26.31641l-26.14063,26.14453c-9.28515,9.28516 -14.39062,21.63281 -14.39062,34.83594c0,13.19922 5.10547,25.55078 14.39062,34.83203c2.98047,2.98047 6.89454,4.51562 10.8125,4.51562c3.91797,0 7.83594,-1.53515 10.81641,-4.51562c5.95703,-5.96094 5.95703,-15.67188 0,-21.71875c-3.49219,-3.49219 -5.45312,-8.17578 -5.45312,-13.11328c0,-4.94141 1.96093,-9.625 5.45312,-13.11719l26.14063,-26.14844z"/>
   <path id="svg_3" fill-rule="nonzero" fill="rgb(0%,0%,0%)" d="m1110.5,1223.30078c3.84375,2.04297 7.89453,-2.3789 5.54297,-6.03906c-12.76953,-19.875 -24.85547,-53.31641 -5.59375,-96.38672c32.12109,-71.82422 51.66406,-109.01953 51.66406,-109.01953c0,0 10.39844,43.41016 38.57813,82.00781c27.125,37.14844 41.96875,83.86719 18.03515,122.78906c-2.24609,3.65235 1.71485,7.96094 5.53125,6.00782c29.62891,-15.15625 62.85547,-45.5625 66.60547,-106.07032c1.38281,-18.48828 -0.6914,-44.37109 -11.05469,-77.03515c-13.33203,-41.39844 -29.71875,-60.71485 -39.19921,-69.01172c-2.83594,-2.48047 -7.2461,-0.28125 -7.01172,3.48047c2.76172,44.66797 -14.03907,56.0039 -23.60547,30.45703c-3.81641,-10.20313 -6.04688,-27.85156 -6.04688,-49.34375c0,-35.78125 -10.3789,-72.61328 -33.25781,-102.54297c-5.95312,-7.78125 -12.91406,-15.05469 -20.90234,-21.25781c-2.89063,-2.2461 -7.08594,0.01172 -6.82032,3.66406c1.75782,24.25391 0.16797,93.76953 -60.80859,176.82031c-55.28906,77.03907 -33.86328,136.20313 -26.26172,152.22657c14.53516,30.69921 34.80469,48.72656 54.60547,59.2539zm0,0"/>
   <g stroke="null" transform="matrix(0.42398566604521776,0,0,0.44281604703403593,-1972.7392300566717,-2068.669643473113) " id="svg_45">
    <title stroke="null" transform="translate(68.3985366821289,106.13887786865234) translate(2.3585703372955322,0) translate(2.3585703372955322,0) translate(2.3585703372955322,0) translate(-7.075710773468018,0) translate(6233.0498046875,0) translate(0,6169.17724609375) ">background</title>
    <rect stroke="null" x="6300.448342" y="6274.316124" width="582" height="402" id="svg_43" fill="none"/>
   </g>
   <g stroke="null" transform="matrix(0.6738895623168027,0,0,0.7313443743721815,-3530.6370126284546,-4220.1549414226165) " id="svg_46">
    <title stroke="null" transform="translate(-26.710607528686523,2.734689712524414) translate(-22.258840560913086,2.734689712524414) translate(2.3585703372955322,0) translate(2.3585703372955322,0) translate(2.3585703372955322,0) translate(-7.075710773468018,0) translate(-592.0011596679688,-106.13887786865234) translate(6233.0498046875,0) translate(0,6169.17724609375) ">Layer 1</title>
    <g stroke="null" id="svg_25">
     <g stroke="null" id="svg_30">
      <g stroke="null" id="svg_31">
       <g stroke="null" id="svg_40" transform="matrix(0.10743826856583727,0,0,0.10743826856583727,0,0) ">
        <title stroke="null" transform="translate(-248.613525390625,25.453590393066406) translate(-207.17794799804688,25.453590393066406) translate(9.307670593261719,0) translate(21.952795028686523,0) translate(21.952795028686523,0) translate(21.952795028686523,0) translate(-65.85838317871094,0) translate(-5510.15185546875,-987.9057006835938) translate(58015.171875,0) translate(0,57420.66796875) ">background</title>
        <rect stroke="null" fill="none" id="svg_41" height="402" width="582" y="62670.275894" x="58291.086024"/>
       </g>
      </g>
     </g>
     <g stroke="null" id="svg_26">
      <g stroke="null" id="svg_27" transform="matrix(18.341630669206907,0,0,18.341630669206907,258.9617792993424,405.6496362740089) ">
       <path stroke="#000000" d="m340.199804,376.117869c0,4.688 -3.8,8.489 -8.489,8.489s-8.489,-3.8 -8.489,-8.489" fill="none" stroke-linecap="round" stroke-miterlimit="10" stroke-width="2" id="svg_29"/>
       <path stroke="#000000" d="m323.447804,371.800869c1.345,-5.307 8.26301,-14.861 8.26301,-14.861s6.831,9.433 8.237,14.76" fill="none" stroke-linecap="round" stroke-miterlimit="10" stroke-width="2" id="svg_28"/>
      </g>
     </g>
    </g>
   </g>
  </g>
</svg>