<?xml version="1.0" encoding="utf-8"?>
<svg width="45pt" height="45pt" viewBox="0 0 45 45" version="1.1" xmlns="http://www.w3.org/2000/svg">
  <path fill="#f2ba0f" d="M 2.965 2.235 C 9.618 2.206 16.278 2.192 22.931 2.227 C 26.97 2.192 30.824 5.02 31.913 8.916 C 33.594 14.949 29.705 21.317 24.206 23.761 C 21.385 25.164 18.159 24.922 15.11 24.858 C 14.704 26.66 14.547 28.512 14.12 30.321 C 13.237 31.048 11.812 30.456 10.736 30.62 C 11.192 27.579 11.662 24.544 12.147 21.503 C 15.829 21.225 19.754 22.186 23.245 20.662 C 26.792 19.024 29.449 15.099 28.779 11.117 C 28.323 8.004 25.367 5.561 22.233 5.632 C 15.623 5.504 8.998 5.782 2.388 5.497 C 2.616 4.414 2.787 3.324 2.965 2.235 Z" style=""/>
  <path fill="#98d023" d="M 7.438 8.425 C 12.268 8.539 17.119 8.232 21.934 8.574 C 25.503 9.187 26.243 14.009 23.921 16.374 C 21.172 19.822 16.356 18.411 12.567 18.611 C 12.745 17.492 12.923 16.374 13.094 15.256 C 15.43 15.156 17.774 15.298 20.11 15.163 C 21.72 15.227 22.66 12.364 20.816 11.965 C 17.311 11.758 13.792 11.929 10.273 11.908 C 9.369 18.148 8.357 24.373 7.403 30.613 C 6.27 30.62 5.138 30.627 4.005 30.642 C 5.116 23.226 6.284 15.826 7.438 8.425 Z" style=""/>
  <g transform="matrix(0.039334, 0, 0, 0.039334, 25.250284, 25.694313)" style="">
    <g>
      <path d="M406.872,160.017c-0.005,0-0.011,0-0.016,0h-400c-3.782-0.004-6.852,3.058-6.856,6.84c0,0.005,0,0.011,0,0.016v192 c-0.004,3.782,3.058,6.852,6.84,6.856c0.005,0,0.011,0,0.016,0h272c3.786,0,6.856-3.07,6.856-6.856 c0-3.786-3.07-6.856-6.856-6.856H13.712V173.729H400v17.144c-0.004,3.782,3.058,6.852,6.84,6.856c0.005,0,0.011,0,0.016,0 c3.782,0.004,6.852-3.058,6.856-6.84c0-0.005,0-0.011,0-0.016v-24C413.716,163.091,410.654,160.022,406.872,160.017z"/>
    </g>
  </g>
  <g transform="matrix(0.039334, 0, 0, 0.039334, 25.250284, 25.694313)" style="">
    <g>
      <path d="M360.36,128.185l-320-72c-1.776-0.397-3.637-0.075-5.176,0.896c-1.537,0.979-2.624,2.526-3.024,4.304l-16,72 c-0.822,3.698,1.51,7.362,5.208,8.184c3.698,0.822,7.362-1.51,8.184-5.208l14.504-65.288l313.296,70.488 c0.496,0.115,1.003,0.172,1.512,0.168c3.786-0.007,6.85-3.082,6.844-6.868C365.702,131.66,363.482,128.89,360.36,128.185z"/>
    </g>
  </g>
  <g transform="matrix(0.039334, 0, 0, 0.039334, 25.250284, 25.694313)" style="">
    <g>
      <path d="M321.504,88.513l-192-80c-3.337-1.391-7.182,0.038-8.8,3.272l-16,32c-1.807,3.342-0.563,7.517,2.78,9.324 c3.342,1.807,7.517,0.563,9.324-2.78c0.071-0.131,0.138-0.265,0.2-0.401v0.016l13.128-26.272l186.072,77.528 c3.504,1.462,7.53-0.192,8.992-3.696C326.662,94.002,325.008,89.976,321.504,88.513z"/>
    </g>
  </g>
  <g transform="matrix(0.039334, 0, 0, 0.039334, 25.250284, 25.694313)" style="">
    <g>
      <path d="M326.352,192.017h-63.496c-3.786,0-6.856,3.07-6.856,6.856c0,3.786,3.07,6.856,6.856,6.856h63.496 c3.786,0,6.856-3.07,6.856-6.856S330.138,192.017,326.352,192.017z"/>
    </g>
  </g>
  <g transform="matrix(0.039334, 0, 0, 0.039334, 25.250284, 25.694313)" style="">
    <g>
      <path d="M198.856,192.473c-38.881,0-70.4,31.519-70.4,70.4c0.04,38.864,31.536,70.36,70.4,70.4c38.881,0,70.4-31.519,70.4-70.4 S237.737,192.473,198.856,192.473z M198.856,320.473c-31.812,0-57.6-25.788-57.6-57.6c0.035-31.797,25.803-57.565,57.6-57.6 c31.812,0,57.6,25.788,57.6,57.6C256.456,294.685,230.668,320.473,198.856,320.473z"/>
    </g>
  </g>
  <g transform="matrix(0.039334, 0, 0, 0.039334, 25.250284, 25.694313)" style="">
    <g>
      <path d="M390.856,214.873c-42.4,0-88,10.016-88,32v192c0,21.984,45.6,32,88,32c42.4,0,88-10.016,88-32v-192 C478.856,224.889,433.256,214.873,390.856,214.873z M462.856,438.753c-1.208,4.44-25.2,16.12-72,16.12s-70.792-11.68-72-16 v-12.576c17.024,8.576,45.144,12.576,72,12.576c26.856,0,54.984-4.04,72-12.584V438.753z M462.856,406.753 c-1.208,4.44-25.2,16.12-72,16.12s-70.792-11.68-72-16v-12.576c17.024,8.576,45.144,12.576,72,12.576 c26.856,0,54.984-4.04,72-12.584V406.753z M462.856,374.753c-1.208,4.44-25.2,16.12-72,16.12s-70.792-11.68-72-16v-12.576 c17.024,8.576,45.144,12.576,72,12.576c26.856,0,54.984-4.04,72-12.584V374.753z M462.856,342.753 c-1.208,4.44-25.2,16.12-72,16.12s-70.792-11.68-72-16v-12.576c17.024,8.576,45.144,12.576,72,12.576 c26.856,0,54.984-4.04,72-12.584V342.753z M462.856,310.753c-1.208,4.44-25.2,16.12-72,16.12s-70.792-11.68-72-16v-12.576 c17.024,8.536,45.144,12.576,72,12.576c26.856,0,54.984-4.04,72-12.584V310.753z M462.856,278.753 c-1.208,4.44-25.2,16.12-72,16.12s-70.792-11.68-72-16v-12.576c17.024,8.536,45.144,12.576,72,12.576 c26.856,0,54.984-4.04,72-12.584V278.753z M390.856,262.873c-46.728,0-70.712-11.648-72-15.856v-0.048 c1.288-4.456,25.272-16.096,72-16.096c46.4,0,70.4,11.472,72,16C461.256,251.401,437.256,262.873,390.856,262.873z"/>
    </g>
  </g>
  <g transform="matrix(0.039334, 0, 0, 0.039334, 25.250284, 25.694313)" style="">
    <g>
      <path d="M134.856,320.009H74.384l-28.672-31.36v-52l31.664-30.92h57.48c3.786,0,6.856-3.07,6.856-6.856 c0-3.786-3.07-6.856-6.856-6.856H74.592c-1.792-0.004-3.515,0.694-4.8,1.944l-35.736,34.856c-1.335,1.56-2.067,3.547-2.064,5.6 v56.896c0,1.711,0.639,3.36,1.792,4.624l32.504,35.552c1.299,1.422,3.137,2.233,5.064,2.232h63.504 c3.786,0,6.856-3.07,6.856-6.856C141.712,323.079,138.643,320.009,134.856,320.009z"/>
    </g>
  </g>
  <g transform="matrix(0.039334, 0, 0, 0.039334, 25.250284, 25.694313)" style="">
    <g>
      <path d="M202.856,254.873h-8c-2.488,0-4-1.392-4-2c0-0.608,1.512-2,4-2h20c4.418,0,8-3.582,8-8s-3.582-8-8-8h-8 c0-4.418-3.582-8-8-8s-8,3.582-8,8v0.36c-8.873,1.253-15.595,8.648-16,17.6c0.573,10.489,9.507,18.548,20,18.04h8 c2.488,0,4,1.392,4,2c0,0.608-1.512,2-4,2h-20c-4.418,0-8,3.582-8,8s3.582,8,8,8h8c0,4.418,3.582,8,8,8s8-3.582,8-8v-0.36 c8.873-1.253,15.595-8.648,16-17.6C222.283,262.424,213.349,254.365,202.856,254.873z"/>
    </g>
  </g>
  <g transform="matrix(1, 0, 0, 1, -193.821261, -216.927526)"/>
  <g transform="matrix(1, 0, 0, 1, -193.821261, -216.927526)"/>
  <g transform="matrix(1, 0, 0, 1, -193.821261, -216.927526)"/>
  <g transform="matrix(1, 0, 0, 1, -193.821261, -216.927526)"/>
  <g transform="matrix(1, 0, 0, 1, -193.821261, -216.927526)"/>
  <g transform="matrix(1, 0, 0, 1, -193.821261, -216.927526)"/>
  <g transform="matrix(1, 0, 0, 1, -193.821261, -216.927526)"/>
  <g transform="matrix(1, 0, 0, 1, -193.821261, -216.927526)"/>
  <g transform="matrix(1, 0, 0, 1, -193.821261, -216.927526)"/>
  <g transform="matrix(1, 0, 0, 1, -193.821261, -216.927526)"/>
  <g transform="matrix(1, 0, 0, 1, -193.821261, -216.927526)"/>
  <g transform="matrix(1, 0, 0, 1, -193.821261, -216.927526)"/>
  <g transform="matrix(1, 0, 0, 1, -193.821261, -216.927526)"/>
  <g transform="matrix(1, 0, 0, 1, -193.821261, -216.927526)"/>
  <g transform="matrix(1, 0, 0, 1, -193.821261, -216.927526)"/>
</svg>